<?xml version="1.0" standalone="no"?>
<!DOCTYPE svg PUBLIC "-//W3C//DTD SVG 20010904//EN"
 "http://www.w3.org/TR/2001/REC-SVG-20010904/DTD/svg10.dtd">
<svg version="1.0" xmlns="http://www.w3.org/2000/svg"
 width="100.000000pt" height="100.000000pt" viewBox="0 0 100.000000 100.000000"
 preserveAspectRatio="xMidYMid meet">
<metadata>
Created by potrace 1.11, written by Peter Selinger 2001-2013
</metadata>
<g transform="translate(0.000000,100.000000) scale(0.100000,-0.100000)"
fill="#000000" stroke="none">
<path d="M403 890 l-72 -70 -86 0 -85 0 0 -78 0 -79 -72 -64 c-39 -35 -75 -63
-80 -61 -25 7 2 -33 72 -107 l80 -83 0 -64 c0 -65 13 -113 33 -126 7 -4 41 -8
78 -8 64 0 66 -1 111 -45 26 -25 56 -45 66 -45 11 0 22 -5 24 -11 2 -7 31 14
63 45 l60 56 118 0 117 0 0 109 0 109 55 47 c30 26 55 54 55 63 0 8 -25 43
-55 77 l-55 63 0 79 c0 43 -4 83 -8 90 -13 20 -61 33 -122 33 l-59 0 -57 60
c-31 33 -66 60 -76 60 -11 0 -16 5 -13 10 3 6 0 10 -7 10 -7 0 -45 -32 -85
-70z m-163 -145 c-12 -15 -30 -12 -30 6 0 5 10 9 21 9 18 0 19 -2 9 -15z m10
-500 l23 -25 -26 0 c-22 0 -27 5 -27 25 0 14 1 25 3 25 2 0 14 -11 27 -25z"/>
</g>
</svg>
